<?xml version="1.0" standalone="no"?>
<!DOCTYPE svg PUBLIC "-//W3C//DTD SVG 20010904//EN"
 "http://www.w3.org/TR/2001/REC-SVG-20010904/DTD/svg10.dtd">
<svg version="1.0" xmlns="http://www.w3.org/2000/svg"
 width="1024.000000pt" height="1024.000000pt" viewBox="0 0 1024.000000 1024.000000"
 preserveAspectRatio="xMidYMid meet">

<g transform="translate(0.000000,1024.000000) scale(0.100000,-0.100000)"
fill="#ffffff" stroke="none">
<path d="M920 5950 l0 -1550 270 0 270 0 0 474 0 475 1071 1075 1071 1076
-359 0 -359 0 -549 -552 c-303 -304 -623 -627 -712 -717 l-163 -164 0 716 0
717 -270 0 -270 0 0 -1550z"/>
<path d="M4140 7230 l0 -270 1125 0 1125 0 0 270 0 270 -1125 0 -1125 0 0
-270z"/>
<path d="M6980 7231 l0 -270 588 -4 c565 -3 590 -4 662 -25 164 -47 288 -111
405 -209 153 -128 279 -329 332 -528 23 -87 26 -120 27 -255 1 -193 -20 -285
-98 -445 -118 -239 -307 -409 -550 -494 -162 -57 -214 -61 -818 -61 l-548 0 0
-270 0 -270 543 0 c657 0 752 8 971 82 442 148 805 514 955 964 60 180 75 279
75 499 0 168 -4 216 -22 301 -136 629 -593 1090 -1206 1215 -140 28 -293 35
-838 38 l-478 2 0 -270z"/>
<path d="M4140 5953 l0 -273 1040 0 1040 0 0 270 0 270 -1040 2 -1040 3 0
-272z"/>
<path d="M1912 5687 l-163 -164 48 -59 c54 -64 374 -451 686 -826 l197 -238
315 0 c173 0 315 2 315 5 0 2 -91 111 -202 242 -111 131 -288 339 -392 463
-337 400 -629 740 -635 740 -3 0 -80 -73 -169 -163z"/>
<path d="M4140 4670 l0 -270 1125 0 1125 0 0 270 0 270 -1125 0 -1125 0 0
-270z"/>
<path d="M1781 3873 c-48 -24 -71 -67 -71 -134 0 -88 34 -120 183 -168 71 -24
87 -40 87 -89 0 -92 -164 -104 -202 -14 -7 15 -13 28 -13 30 -1 1 -16 -3 -33
-9 -37 -13 -40 -29 -11 -76 30 -48 85 -73 161 -73 109 0 168 48 175 142 6 90
-32 131 -160 169 -87 26 -122 57 -113 102 8 43 40 67 87 67 37 0 89 -17 89
-29 0 -3 7 -14 15 -24 18 -25 75 -15 75 13 0 27 -49 80 -87 96 -45 19 -140 17
-182 -3z"/>
<path d="M4372 3864 c-121 -60 -178 -200 -138 -339 14 -45 29 -69 69 -109 58
-58 103 -76 191 -76 69 0 111 17 166 66 60 54 82 105 88 195 4 66 1 84 -20
131 -65 141 -222 199 -356 132z m160 -54 c156 -44 187 -268 51 -364 -107 -75
-261 0 -279 136 -16 120 64 225 181 237 6 0 27 -4 47 -9z"/>
<path d="M8265 3871 c-51 -31 -68 -58 -73 -115 -8 -93 28 -132 160 -176 87
-28 111 -48 111 -89 0 -97 -152 -114 -199 -22 -16 31 -18 32 -52 20 -38 -13
-40 -25 -9 -69 39 -58 70 -74 150 -78 122 -5 187 49 187 154 0 78 -35 114
-143 150 -98 32 -127 55 -127 101 0 49 29 73 89 73 48 0 91 -25 102 -59 7 -21
69 -4 69 19 0 27 -49 80 -87 96 -48 20 -142 18 -178 -5z"/>
<path d="M2980 3615 l0 -265 40 0 40 0 0 95 0 95 78 0 c63 0 88 5 123 23 57
30 89 84 89 152 0 69 -26 115 -80 143 -39 19 -59 22 -167 22 l-123 0 0 -265z
m243 183 c35 -18 46 -40 47 -86 0 -35 -6 -49 -29 -73 -27 -27 -35 -29 -105
-29 l-76 0 0 100 0 100 71 0 c39 0 80 -5 92 -12z"/>
<path d="M5670 3615 l0 -265 40 0 40 0 0 95 0 95 50 0 50 0 62 -95 61 -95 44
0 c51 0 53 -8 -29 125 -35 56 -46 81 -36 84 29 9 77 69 88 109 21 79 -11 157
-79 192 -34 17 -59 20 -166 20 l-125 0 0 -265z m270 169 c26 -26 29 -93 6
-129 -23 -34 -54 -45 -132 -45 l-64 0 0 101 0 101 85 -3 c69 -3 88 -8 105 -25z"/>
<path d="M6960 3845 l0 -35 75 0 75 0 0 -230 0 -230 40 0 40 0 0 230 0 230 70
0 c62 0 70 2 70 19 0 11 3 26 6 35 5 14 -15 16 -185 16 l-191 0 0 -35z"/>
</g>
</svg>
